<svg width="32" height="32" viewBox="0 0 32 32" fill="none" xmlns="http://www.w3.org/2000/svg">
<path fill-rule="evenodd" clip-rule="evenodd" d="M4 14.6666C4 11.7211 6.38781 9.33331 9.33333 9.33331H22.6667C25.6122 9.33331 28 11.7211 28 14.6666V22.6666C28 25.6122 25.6122 28 22.6667 28H9.33333C6.38781 28 4 25.6122 4 22.6666V14.6666ZM9.33333 12C7.86057 12 6.66667 13.1939 6.66667 14.6666V22.6666C6.66667 24.1394 7.86057 25.3333 9.33333 25.3333H22.6667C24.1394 25.3333 25.3333 24.1394 25.3333 22.6666V14.6666C25.3333 13.1939 24.1394 12 22.6667 12H9.33333Z" fill="#171717"/>
<path fill-rule="evenodd" clip-rule="evenodd" d="M16 14.6667C15.2636 14.6667 14.6667 15.2636 14.6667 16V17.3334H13.3333C12.597 17.3334 12 17.9303 12 18.6667C12 19.4031 12.597 20 13.3333 20H14.6667V21.3334C14.6667 22.0697 15.2636 22.6667 16 22.6667C16.7364 22.6667 17.3333 22.0697 17.3333 21.3334V20H18.6667C19.403 20 20 19.4031 20 18.6667C20 17.9303 19.403 17.3334 18.6667 17.3334L17.3333 17.3334V16C17.3333 15.2636 16.7364 14.6667 16 14.6667Z" fill="#171717"/>
<path fill-rule="evenodd" clip-rule="evenodd" d="M13.333 6.66667C12.5966 6.66667 11.9997 7.26362 11.9997 8V9.33333H9.33301V8C9.33301 5.79086 11.1239 4 13.333 4H18.6663C20.8755 4 22.6663 5.79086 22.6663 8V9.33333H19.9997V8C19.9997 7.26362 19.4027 6.66667 18.6663 6.66667H13.333Z" fill="#171717"/>
</svg>
